<svg width="32" height="32" viewBox="0 0 32 32" fill="none" xmlns="http://www.w3.org/2000/svg">
<path d="M16.0023 19.5C15.048 19.5 14.1328 19.1313 13.458 18.4749C12.7832 17.8185 12.4041 16.9283 12.4041 16C12.4041 15.0717 12.7832 14.1815 13.458 13.5251C14.1328 12.8687 15.048 12.5 16.0023 12.5C16.9566 12.5 17.8718 12.8687 18.5466 13.5251C19.2214 14.1815 19.6005 15.0717 19.6005 16C19.6005 16.9283 19.2214 17.8185 18.5466 18.4749C17.8718 19.1313 16.9566 19.5 16.0023 19.5ZM23.6407 16.97C23.6818 16.65 23.7127 16.33 23.7127 16C23.7127 15.67 23.6818 15.34 23.6407 15L25.8099 13.37C26.0052 13.22 26.0566 12.95 25.9333 12.73L23.8772 9.27C23.7538 9.05 23.4762 8.96 23.25 9.05L20.6902 10.05C20.1556 9.66 19.6005 9.32 18.9528 9.07L18.5724 6.42C18.5515 6.30222 18.4884 6.19543 18.3944 6.11855C18.3003 6.04168 18.1813 5.99968 18.0584 6H13.9462C13.6892 6 13.4733 6.18 13.4321 6.42L13.0518 9.07C12.4041 9.32 11.8489 9.66 11.3143 10.05L8.7545 9.05C8.52832 8.96 8.25075 9.05 8.12738 9.27L6.07128 12.73C5.93763 12.95 5.99931 13.22 6.19464 13.37L8.36384 15C8.32271 15.34 8.29187 15.67 8.29187 16C8.29187 16.33 8.32271 16.65 8.36384 16.97L6.19464 18.63C5.99931 18.78 5.93763 19.05 6.07128 19.27L8.12738 22.73C8.25075 22.95 8.52832 23.03 8.7545 22.95L11.3143 21.94C11.8489 22.34 12.4041 22.68 13.0518 22.93L13.4321 25.58C13.4733 25.82 13.6892 26 13.9462 26H18.0584C18.3154 26 18.5313 25.82 18.5724 25.58L18.9528 22.93C19.6005 22.67 20.1556 22.34 20.6902 21.94L23.25 22.95C23.4762 23.03 23.7538 22.95 23.8772 22.73L25.9333 19.27C26.0566 19.05 26.0052 18.78 25.8099 18.63L23.6407 16.97Z" fill="white"/>
</svg>
