<svg width="30" height="30" viewBox="0 0 30 30" fill="none" xmlns="http://www.w3.org/2000/svg">
<path d="M15.0333 2.5C8.15833 2.5 2.53333 8.125 2.53333 15C2.53333 21.875 8.15833 27.5 15.0333 27.5C21.9083 27.5 27.5333 21.875 27.5333 15C27.5333 8.125 21.9083 2.5 15.0333 2.5ZM15.0333 25C9.52083 25 5.03333 20.5125 5.03333 15C5.03333 9.4875 9.52083 5 15.0333 5C20.5458 5 25.0333 9.4875 25.0333 15C25.0333 20.5125 20.5458 25 15.0333 25ZM20.7708 9.475L12.5333 17.7125L9.29583 14.4875L7.53333 16.25L12.5333 21.25L22.5333 11.25L20.7708 9.475Z" fill="white"/>
</svg>
